<mxfile host="app.diagrams.net" modified="2022-06-30T12:45:41.214Z" agent="5.0 (Windows NT 10.0; Win64; x64) AppleWebKit/537.36 (KHTML, like Gecko) Chrome/103.0.0.0 Safari/537.36" etag="-1Mtbs1L45ejQ21EGacD" version="20.0.1" type="github">
  <diagram id="oU5v5yM5KwiJTBOr6eC6" name="Page-1">
    <mxGraphModel dx="1422" dy="762" grid="1" gridSize="10" guides="1" tooltips="1" connect="1" arrows="1" fold="1" page="1" pageScale="1" pageWidth="827" pageHeight="1169" math="0" shadow="0">
      <root>
        <mxCell id="0" />
        <mxCell id="1" parent="0" />
        <mxCell id="iQPz2Y7O2Tbb3x_0lv9U-38" style="edgeStyle=orthogonalEdgeStyle;rounded=0;orthogonalLoop=1;jettySize=auto;html=1;exitX=0.5;exitY=0;exitDx=0;exitDy=0;entryX=0;entryY=0.5;entryDx=0;entryDy=0;" edge="1" parent="1" source="gQODTupdDgvmeVCkuseZ-1" target="gQODTupdDgvmeVCkuseZ-8">
          <mxGeometry relative="1" as="geometry" />
        </mxCell>
        <mxCell id="gQODTupdDgvmeVCkuseZ-1" value="agent" style="swimlane;fontStyle=0;childLayout=stackLayout;horizontal=1;startSize=26;horizontalStack=0;resizeParent=1;resizeParentMax=0;resizeLast=0;collapsible=1;marginBottom=0;align=center;fontSize=14;rounded=1;" parent="1" vertex="1">
          <mxGeometry x="220" y="280" width="156" height="176" as="geometry" />
        </mxCell>
        <mxCell id="gQODTupdDgvmeVCkuseZ-7" value="id" style="text;strokeColor=none;fillColor=none;spacingLeft=4;spacingRight=4;overflow=hidden;rotatable=0;points=[[0,0.5],[1,0.5]];portConstraint=eastwest;fontSize=12;fontStyle=4" parent="gQODTupdDgvmeVCkuseZ-1" vertex="1">
          <mxGeometry y="26" width="156" height="30" as="geometry" />
        </mxCell>
        <mxCell id="gQODTupdDgvmeVCkuseZ-2" value="last_name&#xa;" style="text;strokeColor=none;fillColor=none;spacingLeft=4;spacingRight=4;overflow=hidden;rotatable=0;points=[[0,0.5],[1,0.5]];portConstraint=eastwest;fontSize=12;" parent="gQODTupdDgvmeVCkuseZ-1" vertex="1">
          <mxGeometry y="56" width="156" height="30" as="geometry" />
        </mxCell>
        <mxCell id="gQODTupdDgvmeVCkuseZ-3" value="first_name" style="text;strokeColor=none;fillColor=none;spacingLeft=4;spacingRight=4;overflow=hidden;rotatable=0;points=[[0,0.5],[1,0.5]];portConstraint=eastwest;fontSize=12;" parent="gQODTupdDgvmeVCkuseZ-1" vertex="1">
          <mxGeometry y="86" width="156" height="30" as="geometry" />
        </mxCell>
        <mxCell id="gQODTupdDgvmeVCkuseZ-4" value="birth_date" style="text;strokeColor=none;fillColor=none;spacingLeft=4;spacingRight=4;overflow=hidden;rotatable=0;points=[[0,0.5],[1,0.5]];portConstraint=eastwest;fontSize=12;" parent="gQODTupdDgvmeVCkuseZ-1" vertex="1">
          <mxGeometry y="116" width="156" height="30" as="geometry" />
        </mxCell>
        <mxCell id="gQODTupdDgvmeVCkuseZ-5" value="code_id" style="text;strokeColor=none;fillColor=none;spacingLeft=4;spacingRight=4;overflow=hidden;rotatable=0;points=[[0,0.5],[1,0.5]];portConstraint=eastwest;fontSize=12;" parent="gQODTupdDgvmeVCkuseZ-1" vertex="1">
          <mxGeometry y="146" width="156" height="30" as="geometry" />
        </mxCell>
        <mxCell id="iQPz2Y7O2Tbb3x_0lv9U-39" style="edgeStyle=orthogonalEdgeStyle;rounded=0;orthogonalLoop=1;jettySize=auto;html=1;exitX=1;exitY=0.25;exitDx=0;exitDy=0;entryX=0.25;entryY=0;entryDx=0;entryDy=0;" edge="1" parent="1" source="gQODTupdDgvmeVCkuseZ-8" target="gQODTupdDgvmeVCkuseZ-11">
          <mxGeometry relative="1" as="geometry" />
        </mxCell>
        <mxCell id="gQODTupdDgvmeVCkuseZ-8" value="has" style="rounded=1;whiteSpace=wrap;html=1;fillColor=#ffe6cc;strokeColor=#d79b00;" parent="1" vertex="1">
          <mxGeometry x="550" y="351" width="120" height="60" as="geometry" />
        </mxCell>
        <mxCell id="gQODTupdDgvmeVCkuseZ-11" value="nationality" style="swimlane;fontStyle=0;childLayout=stackLayout;horizontal=1;startSize=26;horizontalStack=0;resizeParent=1;resizeParentMax=0;resizeLast=0;collapsible=1;marginBottom=0;align=center;fontSize=14;rounded=1;" parent="1" vertex="1">
          <mxGeometry x="760" y="338" width="160" height="86" as="geometry" />
        </mxCell>
        <mxCell id="gQODTupdDgvmeVCkuseZ-12" value="id" style="text;strokeColor=none;fillColor=none;spacingLeft=4;spacingRight=4;overflow=hidden;rotatable=0;points=[[0,0.5],[1,0.5]];portConstraint=eastwest;fontSize=12;fontStyle=4" parent="gQODTupdDgvmeVCkuseZ-11" vertex="1">
          <mxGeometry y="26" width="160" height="30" as="geometry" />
        </mxCell>
        <mxCell id="gQODTupdDgvmeVCkuseZ-13" value="country" style="text;strokeColor=none;fillColor=none;spacingLeft=4;spacingRight=4;overflow=hidden;rotatable=0;points=[[0,0.5],[1,0.5]];portConstraint=eastwest;fontSize=12;" parent="gQODTupdDgvmeVCkuseZ-11" vertex="1">
          <mxGeometry y="56" width="160" height="30" as="geometry" />
        </mxCell>
        <mxCell id="gQODTupdDgvmeVCkuseZ-16" value="skill" style="swimlane;fontStyle=0;childLayout=stackLayout;horizontal=1;startSize=26;horizontalStack=0;resizeParent=1;resizeParentMax=0;resizeLast=0;collapsible=1;marginBottom=0;align=center;fontSize=14;rounded=1;" parent="1" vertex="1">
          <mxGeometry x="570" y="560" width="160" height="86" as="geometry" />
        </mxCell>
        <mxCell id="gQODTupdDgvmeVCkuseZ-17" value="id" style="text;strokeColor=none;fillColor=none;spacingLeft=4;spacingRight=4;overflow=hidden;rotatable=0;points=[[0,0.5],[1,0.5]];portConstraint=eastwest;fontSize=12;fontStyle=4" parent="gQODTupdDgvmeVCkuseZ-16" vertex="1">
          <mxGeometry y="26" width="160" height="30" as="geometry" />
        </mxCell>
        <mxCell id="gQODTupdDgvmeVCkuseZ-18" value="skill_name" style="text;strokeColor=none;fillColor=none;spacingLeft=4;spacingRight=4;overflow=hidden;rotatable=0;points=[[0,0.5],[1,0.5]];portConstraint=eastwest;fontSize=12;" parent="gQODTupdDgvmeVCkuseZ-16" vertex="1">
          <mxGeometry y="56" width="160" height="30" as="geometry" />
        </mxCell>
        <mxCell id="iQPz2Y7O2Tbb3x_0lv9U-40" style="edgeStyle=orthogonalEdgeStyle;rounded=0;orthogonalLoop=1;jettySize=auto;html=1;exitX=1;exitY=0.25;exitDx=0;exitDy=0;entryX=0.5;entryY=0;entryDx=0;entryDy=0;" edge="1" parent="1" source="gQODTupdDgvmeVCkuseZ-21" target="gQODTupdDgvmeVCkuseZ-16">
          <mxGeometry relative="1" as="geometry" />
        </mxCell>
        <mxCell id="iQPz2Y7O2Tbb3x_0lv9U-44" style="edgeStyle=orthogonalEdgeStyle;rounded=0;orthogonalLoop=1;jettySize=auto;html=1;exitX=0;exitY=0.5;exitDx=0;exitDy=0;entryX=0.462;entryY=1.033;entryDx=0;entryDy=0;entryPerimeter=0;startArrow=classic;startFill=1;endArrow=none;endFill=0;" edge="1" parent="1" source="gQODTupdDgvmeVCkuseZ-21" target="gQODTupdDgvmeVCkuseZ-5">
          <mxGeometry relative="1" as="geometry" />
        </mxCell>
        <mxCell id="gQODTupdDgvmeVCkuseZ-21" value="has" style="rounded=1;whiteSpace=wrap;html=1;fillColor=#ffe6cc;strokeColor=#d79b00;" parent="1" vertex="1">
          <mxGeometry x="390" y="525" width="120" height="60" as="geometry" />
        </mxCell>
        <mxCell id="gQODTupdDgvmeVCkuseZ-25" value="1, 1" style="text;html=1;align=center;verticalAlign=middle;resizable=0;points=[];autosize=1;strokeColor=none;fillColor=none;" parent="1" vertex="1">
          <mxGeometry x="370" y="361" width="40" height="20" as="geometry" />
        </mxCell>
        <mxCell id="iQPz2Y7O2Tbb3x_0lv9U-34" style="edgeStyle=orthogonalEdgeStyle;rounded=0;orthogonalLoop=1;jettySize=auto;html=1;exitX=0;exitY=0;exitDx=0;exitDy=0;entryX=0.5;entryY=0;entryDx=0;entryDy=0;" edge="1" parent="1" source="iQPz2Y7O2Tbb3x_0lv9U-1" target="iQPz2Y7O2Tbb3x_0lv9U-6">
          <mxGeometry relative="1" as="geometry">
            <Array as="points">
              <mxPoint x="1053" y="90" />
              <mxPoint x="1053" y="70" />
              <mxPoint x="840" y="70" />
            </Array>
          </mxGeometry>
        </mxCell>
        <mxCell id="iQPz2Y7O2Tbb3x_0lv9U-1" value="target" style="swimlane;fontStyle=0;childLayout=stackLayout;horizontal=1;startSize=26;horizontalStack=0;resizeParent=1;resizeParentMax=0;resizeLast=0;collapsible=1;marginBottom=0;align=center;fontSize=14;rounded=1;swimlaneLine=1;" vertex="1" parent="1">
          <mxGeometry x="973" y="90" width="160" height="176" as="geometry" />
        </mxCell>
        <mxCell id="iQPz2Y7O2Tbb3x_0lv9U-22" value="id" style="text;strokeColor=none;fillColor=none;spacingLeft=4;spacingRight=4;overflow=hidden;rotatable=0;points=[[0,0.5],[1,0.5]];portConstraint=eastwest;fontSize=12;fontStyle=4" vertex="1" parent="iQPz2Y7O2Tbb3x_0lv9U-1">
          <mxGeometry y="26" width="160" height="30" as="geometry" />
        </mxCell>
        <mxCell id="iQPz2Y7O2Tbb3x_0lv9U-2" value="last_name" style="text;strokeColor=none;fillColor=none;spacingLeft=4;spacingRight=4;overflow=hidden;rotatable=0;points=[[0,0.5],[1,0.5]];portConstraint=eastwest;fontSize=12;" vertex="1" parent="iQPz2Y7O2Tbb3x_0lv9U-1">
          <mxGeometry y="56" width="160" height="30" as="geometry" />
        </mxCell>
        <mxCell id="iQPz2Y7O2Tbb3x_0lv9U-3" value="first_name" style="text;strokeColor=none;fillColor=none;spacingLeft=4;spacingRight=4;overflow=hidden;rotatable=0;points=[[0,0.5],[1,0.5]];portConstraint=eastwest;fontSize=12;" vertex="1" parent="iQPz2Y7O2Tbb3x_0lv9U-1">
          <mxGeometry y="86" width="160" height="30" as="geometry" />
        </mxCell>
        <mxCell id="iQPz2Y7O2Tbb3x_0lv9U-4" value="birth_date" style="text;strokeColor=none;fillColor=none;spacingLeft=4;spacingRight=4;overflow=hidden;rotatable=0;points=[[0,0.5],[1,0.5]];portConstraint=eastwest;fontSize=12;" vertex="1" parent="iQPz2Y7O2Tbb3x_0lv9U-1">
          <mxGeometry y="116" width="160" height="30" as="geometry" />
        </mxCell>
        <mxCell id="iQPz2Y7O2Tbb3x_0lv9U-5" value="code_name" style="text;strokeColor=none;fillColor=none;spacingLeft=4;spacingRight=4;overflow=hidden;rotatable=0;points=[[0,0.5],[1,0.5]];portConstraint=eastwest;fontSize=12;" vertex="1" parent="iQPz2Y7O2Tbb3x_0lv9U-1">
          <mxGeometry y="146" width="160" height="30" as="geometry" />
        </mxCell>
        <mxCell id="iQPz2Y7O2Tbb3x_0lv9U-8" style="edgeStyle=orthogonalEdgeStyle;rounded=0;orthogonalLoop=1;jettySize=auto;html=1;" edge="1" parent="1" source="iQPz2Y7O2Tbb3x_0lv9U-6" target="gQODTupdDgvmeVCkuseZ-11">
          <mxGeometry relative="1" as="geometry" />
        </mxCell>
        <mxCell id="iQPz2Y7O2Tbb3x_0lv9U-6" value="has" style="rounded=1;whiteSpace=wrap;html=1;fillColor=#ffe6cc;strokeColor=#d79b00;" vertex="1" parent="1">
          <mxGeometry x="780" y="191" width="120" height="60" as="geometry" />
        </mxCell>
        <mxCell id="iQPz2Y7O2Tbb3x_0lv9U-9" value="1, 1" style="text;html=1;align=center;verticalAlign=middle;resizable=0;points=[];autosize=1;strokeColor=none;fillColor=none;" vertex="1" parent="1">
          <mxGeometry x="933" y="200" width="40" height="20" as="geometry" />
        </mxCell>
        <mxCell id="iQPz2Y7O2Tbb3x_0lv9U-33" style="edgeStyle=orthogonalEdgeStyle;rounded=0;orthogonalLoop=1;jettySize=auto;html=1;exitX=0.5;exitY=0;exitDx=0;exitDy=0;entryX=1;entryY=0.5;entryDx=0;entryDy=0;" edge="1" parent="1" source="iQPz2Y7O2Tbb3x_0lv9U-10" target="iQPz2Y7O2Tbb3x_0lv9U-15">
          <mxGeometry relative="1" as="geometry" />
        </mxCell>
        <mxCell id="iQPz2Y7O2Tbb3x_0lv9U-10" value="contact" style="swimlane;fontStyle=0;childLayout=stackLayout;horizontal=1;startSize=26;horizontalStack=0;resizeParent=1;resizeParentMax=0;resizeLast=0;collapsible=1;marginBottom=0;align=center;fontSize=14;rounded=1;" vertex="1" parent="1">
          <mxGeometry x="1230" y="310" width="160" height="176" as="geometry" />
        </mxCell>
        <mxCell id="iQPz2Y7O2Tbb3x_0lv9U-23" value="id" style="text;strokeColor=none;fillColor=none;spacingLeft=4;spacingRight=4;overflow=hidden;rotatable=0;points=[[0,0.5],[1,0.5]];portConstraint=eastwest;fontSize=12;fontStyle=4" vertex="1" parent="iQPz2Y7O2Tbb3x_0lv9U-10">
          <mxGeometry y="26" width="160" height="30" as="geometry" />
        </mxCell>
        <mxCell id="iQPz2Y7O2Tbb3x_0lv9U-11" value="last_name" style="text;strokeColor=none;fillColor=none;spacingLeft=4;spacingRight=4;overflow=hidden;rotatable=0;points=[[0,0.5],[1,0.5]];portConstraint=eastwest;fontSize=12;" vertex="1" parent="iQPz2Y7O2Tbb3x_0lv9U-10">
          <mxGeometry y="56" width="160" height="30" as="geometry" />
        </mxCell>
        <mxCell id="iQPz2Y7O2Tbb3x_0lv9U-12" value="first_name" style="text;strokeColor=none;fillColor=none;spacingLeft=4;spacingRight=4;overflow=hidden;rotatable=0;points=[[0,0.5],[1,0.5]];portConstraint=eastwest;fontSize=12;" vertex="1" parent="iQPz2Y7O2Tbb3x_0lv9U-10">
          <mxGeometry y="86" width="160" height="30" as="geometry" />
        </mxCell>
        <mxCell id="iQPz2Y7O2Tbb3x_0lv9U-13" value="birth_date" style="text;strokeColor=none;fillColor=none;spacingLeft=4;spacingRight=4;overflow=hidden;rotatable=0;points=[[0,0.5],[1,0.5]];portConstraint=eastwest;fontSize=12;" vertex="1" parent="iQPz2Y7O2Tbb3x_0lv9U-10">
          <mxGeometry y="116" width="160" height="30" as="geometry" />
        </mxCell>
        <mxCell id="iQPz2Y7O2Tbb3x_0lv9U-14" value="code_name" style="text;strokeColor=none;fillColor=none;spacingLeft=4;spacingRight=4;overflow=hidden;rotatable=0;points=[[0,0.5],[1,0.5]];portConstraint=eastwest;fontSize=12;" vertex="1" parent="iQPz2Y7O2Tbb3x_0lv9U-10">
          <mxGeometry y="146" width="160" height="30" as="geometry" />
        </mxCell>
        <mxCell id="iQPz2Y7O2Tbb3x_0lv9U-37" style="edgeStyle=orthogonalEdgeStyle;rounded=0;orthogonalLoop=1;jettySize=auto;html=1;exitX=0;exitY=0.5;exitDx=0;exitDy=0;" edge="1" parent="1" source="iQPz2Y7O2Tbb3x_0lv9U-15">
          <mxGeometry relative="1" as="geometry">
            <mxPoint x="920" y="352" as="targetPoint" />
          </mxGeometry>
        </mxCell>
        <mxCell id="iQPz2Y7O2Tbb3x_0lv9U-15" value="has" style="rounded=1;whiteSpace=wrap;html=1;fillColor=#ffe6cc;strokeColor=#d79b00;" vertex="1" parent="1">
          <mxGeometry x="1000" y="322" width="120" height="60" as="geometry" />
        </mxCell>
        <mxCell id="iQPz2Y7O2Tbb3x_0lv9U-32" style="edgeStyle=orthogonalEdgeStyle;rounded=0;orthogonalLoop=1;jettySize=auto;html=1;entryX=1;entryY=0.5;entryDx=0;entryDy=0;" edge="1" parent="1" source="iQPz2Y7O2Tbb3x_0lv9U-18" target="iQPz2Y7O2Tbb3x_0lv9U-29">
          <mxGeometry relative="1" as="geometry" />
        </mxCell>
        <mxCell id="iQPz2Y7O2Tbb3x_0lv9U-18" value="country" style="swimlane;fontStyle=0;childLayout=stackLayout;horizontal=1;startSize=26;horizontalStack=0;resizeParent=1;resizeParentMax=0;resizeLast=0;collapsible=1;marginBottom=0;align=center;fontSize=14;rounded=1;" vertex="1" parent="1">
          <mxGeometry x="980" y="499" width="160" height="86" as="geometry" />
        </mxCell>
        <mxCell id="iQPz2Y7O2Tbb3x_0lv9U-19" value="id" style="text;strokeColor=none;fillColor=none;spacingLeft=4;spacingRight=4;overflow=hidden;rotatable=0;points=[[0,0.5],[1,0.5]];portConstraint=eastwest;fontSize=12;fontStyle=4;rounded=1;" vertex="1" parent="iQPz2Y7O2Tbb3x_0lv9U-18">
          <mxGeometry y="26" width="160" height="30" as="geometry" />
        </mxCell>
        <mxCell id="iQPz2Y7O2Tbb3x_0lv9U-20" value="name" style="text;strokeColor=none;fillColor=none;spacingLeft=4;spacingRight=4;overflow=hidden;rotatable=0;points=[[0,0.5],[1,0.5]];portConstraint=eastwest;fontSize=12;" vertex="1" parent="iQPz2Y7O2Tbb3x_0lv9U-18">
          <mxGeometry y="56" width="160" height="30" as="geometry" />
        </mxCell>
        <mxCell id="iQPz2Y7O2Tbb3x_0lv9U-29" value="belongs to" style="rounded=1;whiteSpace=wrap;html=1;fillColor=#ffe6cc;strokeColor=#d79b00;" vertex="1" parent="1">
          <mxGeometry x="780" y="512" width="120" height="60" as="geometry" />
        </mxCell>
        <mxCell id="iQPz2Y7O2Tbb3x_0lv9U-48" style="edgeStyle=orthogonalEdgeStyle;rounded=0;orthogonalLoop=1;jettySize=auto;html=1;exitX=1;exitY=0.5;exitDx=0;exitDy=0;entryX=0.5;entryY=0;entryDx=0;entryDy=0;startArrow=classic;startFill=1;endArrow=none;endFill=0;" edge="1" parent="1" source="gQODTupdDgvmeVCkuseZ-13" target="iQPz2Y7O2Tbb3x_0lv9U-29">
          <mxGeometry relative="1" as="geometry" />
        </mxCell>
      </root>
    </mxGraphModel>
  </diagram>
</mxfile>
